<?xml version="1.0" encoding="utf-8"?>
<!-- Generator: Adobe Illustrator 19.2.0, SVG Export Plug-In . SVG Version: 6.00 Build 0)  -->
<svg version="1.1" id="Layer_1" xmlns="http://www.w3.org/2000/svg" xmlns:xlink="http://www.w3.org/1999/xlink" x="0px" y="0px"
	 viewBox="0 0 375.8 146.3" style="enable-background:new 0 0 375.8 146.3;" xml:space="preserve">
<style type="text/css">
	.st0{fill:#212223;}
	.st1{fill:none;}
	.st2{fill:#73CBCF;}
	.st3{fill:#253B7A;}
	.st4{fill:#B8BAC0;}
	.st5{fill:#843593;}
	.st6{fill:#1B75BB;}
</style>
<g>
	<g>
		<g>
			<g>
				<path class="st0" d="M184.1,50.2c-5.4,0-9.2-2.6-9.2-9.7V30c0-7.2,3.8-9.7,9.2-9.7c5.4,0,9.2,2.6,9.2,9.7v0.1h-5.6v-0.8
					c0-3.2-1.4-4.1-3.6-4.1c-2.2,0-3.6,0.9-3.6,4.1v11.8c0,3.2,1.4,4.1,3.6,4.1c2.2,0,3.6-0.9,3.6-4.1v-1.9h5.6v1.2
					C193.2,47.6,189.5,50.2,184.1,50.2z"/>
				<path class="st0" d="M197.8,49.8V20.7H213v4.9h-9.7v6.7h7.4v4.9h-7.4v7.6h10.1v4.9H197.8z"/>
				<path class="st0" d="M231.8,49.8L223.3,31h-0.1v18.7h-5.1V20.7h6.1l7.7,17.2h0.1V20.7h5.1v29.1H231.8z"/>
				<path class="st0" d="M252.8,25.6v24.1h-5.6V25.6h-6.5v-4.9h18.5v4.9H252.8z"/>
				<path class="st0" d="M275.6,49.8l-4.8-11.8h-2.7v11.8h-5.6V20.7h8c6.7,0,9.9,3.2,9.9,8.7c0,3.6-1.3,6.2-4.4,7.4l5.5,13H275.6z
					 M271,25.3h-2.9v8h2.9c2.5,0,3.9-1.2,3.9-4C274.9,26.5,273.4,25.3,271,25.3z"/>
				<path class="st0" d="M285,49.8V20.7h15.2v4.9h-9.7v6.7h7.4v4.9h-7.4v7.6h10.1v4.9H285z"/>
				<path class="st0" d="M321.8,25.6v6.7h7v4.9h-7v12.6h-5.6V20.7h14.5v4.9H321.8z"/>
				<path class="st0" d="M342.8,50.2c-5.4,0-9.2-2.6-9.2-9.7V30c0-7.2,3.8-9.7,9.2-9.7c5.4,0,9.2,2.6,9.2,9.7v10.4
					C352,47.6,348.2,50.2,342.8,50.2z M346.4,29.3c0-3.2-1.4-4.1-3.6-4.1c-2.2,0-3.6,0.9-3.6,4.1v11.8c0,3.2,1.4,4.1,3.6,4.1
					c2.2,0,3.6-0.9,3.6-4.1V29.3z"/>
				<path class="st0" d="M369.5,49.8l-4.8-11.8h-2.7v11.8h-5.6V20.7h8c6.7,0,9.9,3.2,9.9,8.7c0,3.6-1.3,6.2-4.4,7.4l5.5,13H369.5z
					 M364.9,25.3h-2.9v8h2.9c2.5,0,3.9-1.2,3.9-4C368.9,26.5,367.4,25.3,364.9,25.3z"/>
			</g>
			<g>
				<path class="st0" d="M175.7,86.5V57.4h5.6v29.1H175.7z"/>
				<path class="st0" d="M200.5,86.5L192,67.7H192v18.8h-5.1V57.4h6.1l7.7,17.2h0.1V57.4h5.1v29.1H200.5z"/>
				<path class="st0" d="M225.1,86.5l-8.5-18.8h-0.1v18.8h-5.1V57.4h6.1l7.7,17.2h0.1V57.4h5.1v29.1H225.1z"/>
				<path class="st0" d="M244.4,86.9c-5.4,0-9.2-2.6-9.2-9.7V66.8c0-7.2,3.8-9.7,9.2-9.7c5.4,0,9.2,2.6,9.2,9.7v10.4
					C253.6,84.3,249.8,86.9,244.4,86.9z M248.1,66.1c0-3.2-1.4-4.1-3.6-4.1c-2.2,0-3.6,0.9-3.6,4.1v11.8c0,3.2,1.4,4.1,3.6,4.1
					c2.2,0,3.6-0.9,3.6-4.1V66.1z"/>
				<path class="st0" d="M270,86.5h-6.3l-7.4-29.1h5.5l5.1,20.8h0.1l5.1-20.8h5.4L270,86.5z"/>
				<path class="st0" d="M294.5,86.5l-1.4-6.1h-7.7l-1.6,6.1h-5.4l7.2-29.1h7.1l7,29.1H294.5z M289.3,63.7L289.3,63.7l-2.8,11.7h5.5
					L289.3,63.7z"/>
				<path class="st0" d="M313.2,62.4v24.1h-5.6V62.4h-6.5v-4.9h18.5v4.9H313.2z"/>
				<path class="st0" d="M323.3,86.5V57.4h5.6v29.1H323.3z"/>
				<path class="st0" d="M342.9,86.9c-5.4,0-9.2-2.6-9.2-9.7V66.8c0-7.2,3.8-9.7,9.2-9.7c5.4,0,9.2,2.6,9.2,9.7v10.4
					C352,84.3,348.2,86.9,342.9,86.9z M346.5,66.1c0-3.2-1.4-4.1-3.6-4.1c-2.2,0-3.6,0.9-3.6,4.1v11.8c0,3.2,1.4,4.1,3.6,4.1
					c2.2,0,3.6-0.9,3.6-4.1V66.1z"/>
				<path class="st0" d="M370.5,86.5L362,67.7h-0.1v18.8h-5.1V57.4h6.1l7.7,17.2h0.1V57.4h5.1v29.1H370.5z"/>
			</g>
		</g>
		<g>
			<path class="st0" d="M189.3,115c-0.1,0.8-0.7,3.7-0.9,4.5h-12.5v-0.8c2.3-0.2,2.5-0.4,2.5-2.7v-12.4c0-2.4-0.2-2.5-2.3-2.7v-0.8
				h7.2v0.8c-2.2,0.2-2.4,0.4-2.4,2.7v12.2c0,1.5,0.1,2.1,0.6,2.4c0.5,0.3,1.4,0.4,2.5,0.4c1.6,0,2.5-0.2,3.1-0.9
				c0.5-0.6,1-1.5,1.4-2.8L189.3,115z"/>
			<path class="st0" d="M200.9,117.1c-1.6,2.2-3.5,2.8-4.5,2.8c-3.5,0-5.5-3-5.5-6.4c0-2.4,0.9-4.4,2.2-5.7c1.1-1.1,2.5-1.8,3.8-1.8
				h0c2.4,0,4.2,2.2,4.2,4.4c0,0.7-0.2,0.9-0.7,1.1c-0.4,0.1-3.8,0.4-7.3,0.5c0,4.3,2.2,6,4.3,6c1.1,0,2-0.4,3.1-1.4L200.9,117.1z
				 M196.2,107c-1.4,0-2.6,1.6-2.9,3.7c1.6,0,3.1,0,4.7-0.1c0.5,0,0.7-0.2,0.7-0.7C198.7,108.4,197.8,107,196.2,107L196.2,107z"/>
			<path class="st0" d="M202.7,119.5v-0.8c1.8-0.2,1.9-0.3,1.9-2.3v-6.5c0-1.8-0.1-1.8-1.8-2.1v-0.7c1.4-0.3,2.8-0.7,4-1.2v10.5
				c0,1.9,0.2,2.1,2,2.3v0.8H202.7z M205.6,100c0.8,0,1.5,0.7,1.5,1.5c0,0.8-0.6,1.5-1.5,1.5c-0.8,0-1.4-0.7-1.4-1.5
				C204.2,100.6,204.8,100,205.6,100L205.6,100z"/>
			<path class="st0" d="M223.6,118.8c-0.7,0.1-2.8,0.5-4.3,1.1v-1.8l-2,1.2c-0.9,0.5-1.4,0.7-1.8,0.7c-2.1,0-5.1-2.2-5.1-6.5
				c0-4.1,3.3-7.5,7.2-7.5c0.3,0,1.2,0.1,1.7,0.3v-4.1c0-1.8-0.1-1.9-2.1-2.1v-0.8c1.4-0.2,3.3-0.6,4.4-1v17.9c0,1.4,0.2,1.6,1,1.7
				l1,0.1V118.8z M219.3,108.5c-0.6-1-1.7-1.4-2.6-1.4c-1.4,0-3.7,1.2-3.7,5.6c0,3.5,1.9,5.4,3.8,5.4c0.9,0,1.9-0.4,2.6-1V108.5z"/>
			<path class="st0" d="M235.1,117.1c-1.6,2.2-3.5,2.8-4.5,2.8c-3.5,0-5.5-3-5.5-6.4c0-2.4,0.9-4.4,2.2-5.7c1.1-1.1,2.5-1.8,3.8-1.8
				h0c2.4,0,4.2,2.2,4.2,4.4c0,0.7-0.2,0.9-0.7,1.1c-0.4,0.1-3.8,0.4-7.3,0.5c0,4.3,2.2,6,4.3,6c1.1,0,2-0.4,3.1-1.4L235.1,117.1z
				 M230.4,107c-1.4,0-2.6,1.6-2.9,3.7c1.6,0,3.1,0,4.7-0.1c0.5,0,0.7-0.2,0.7-0.7C232.8,108.4,232,107,230.4,107L230.4,107z"/>
			<path class="st0" d="M244.7,119.5v-0.8c1.7-0.2,1.8-0.3,1.8-2.3V111c0-2.1-0.6-3.3-2.5-3.3c-1.1,0-2.2,0.7-3,1.4v7.4
				c0,1.9,0.2,2.1,1.7,2.2v0.8h-6v-0.8c1.9-0.2,2-0.3,2-2.2v-6.6c0-1.8-0.1-1.9-1.7-2.2v-0.7c1.4-0.3,2.7-0.6,4-1.2v2.2
				c0.6-0.4,1.2-0.8,1.8-1.3c0.8-0.5,1.5-0.9,2.3-0.9c2.3,0,3.5,1.7,3.5,4.3v6.2c0,1.9,0.2,2,1.7,2.2v0.8H244.7z"/>
			<path class="st0" d="M276.2,100.9c-1.7,0.2-2.2,0.5-2.3,1.7c-0.1,0.9-0.2,2.2-0.2,4.8v3.2c0,3.4-0.5,5.8-2,7.5
				c-1.2,1.4-3,1.9-4.7,1.9c-1.5,0-3.1-0.3-4.3-1.4c-1.5-1.3-2.2-3.4-2.2-6.7v-8.2c0-2.5-0.2-2.6-2.3-2.8v-0.8h7.1v0.8
				c-2.1,0.2-2.3,0.3-2.3,2.8v7.2c0,4.4,1.2,7.4,4.7,7.4c3.8,0,4.8-3.6,4.8-8.5v-2.5c0-2.6-0.1-3.9-0.2-4.8
				c-0.2-1.2-0.6-1.5-2.7-1.6v-0.8h6.5V100.9z"/>
			<path class="st0" d="M285.5,119.5v-0.8c1.7-0.2,1.8-0.3,1.8-2.3V111c0-2.1-0.6-3.3-2.5-3.3c-1.1,0-2.2,0.7-3,1.4v7.4
				c0,1.9,0.2,2.1,1.7,2.2v0.8h-6v-0.8c1.9-0.2,2-0.3,2-2.2v-6.6c0-1.8-0.1-1.9-1.7-2.2v-0.7c1.4-0.3,2.7-0.6,4-1.2v2.2
				c0.6-0.4,1.2-0.8,1.8-1.3c0.8-0.5,1.5-0.9,2.3-0.9c2.3,0,3.5,1.7,3.5,4.3v6.2c0,1.9,0.2,2,1.7,2.2v0.8H285.5z"/>
			<path class="st0" d="M292.9,119.5v-0.8c1.8-0.2,1.9-0.3,1.9-2.3v-6.5c0-1.8-0.1-1.8-1.8-2.1v-0.7c1.4-0.3,2.8-0.7,4-1.2v10.5
				c0,1.9,0.2,2.1,2,2.3v0.8H292.9z M295.8,100c0.8,0,1.5,0.7,1.5,1.5c0,0.8-0.6,1.5-1.5,1.5c-0.8,0-1.4-0.7-1.4-1.5
				C294.4,100.6,295,100,295.8,100L295.8,100z"/>
			<path class="st0" d="M312.7,107.1c-1.4,0.2-1.7,0.5-2.4,2.1c-1,2.5-2.4,6.1-3.9,10.6h-0.8c-1.2-3.7-2.5-7.1-3.8-10.6
				c-0.6-1.7-0.8-1.9-2.3-2.1v-0.8h5.7v0.8c-1.5,0.2-1.5,0.4-1.1,1.5c0.8,2.4,1.8,5.4,2.6,7.6c0.9-2.6,1.8-5.1,2.4-7.2
				c0.5-1.5,0.3-1.8-1.3-2v-0.8h4.9V107.1z"/>
			<path class="st0" d="M323.5,117.1c-1.6,2.2-3.5,2.8-4.5,2.8c-3.5,0-5.5-3-5.5-6.4c0-2.4,0.9-4.4,2.2-5.7c1.1-1.1,2.5-1.8,3.8-1.8
				h0c2.4,0,4.2,2.2,4.2,4.4c0,0.7-0.2,0.9-0.7,1.1c-0.4,0.1-3.8,0.4-7.3,0.5c0,4.3,2.2,6,4.3,6c1.1,0,2-0.4,3.1-1.4L323.5,117.1z
				 M318.8,107c-1.4,0-2.6,1.6-2.9,3.7c1.6,0,3.1,0,4.7-0.1c0.5,0,0.7-0.2,0.7-0.7C321.3,108.4,320.4,107,318.8,107L318.8,107z"/>
			<path class="st0" d="M329.6,109c0.8-1.3,2-3,3.4-3c0.9,0,1.6,0.8,1.6,1.5c0,0.6-0.4,1.2-0.9,1.5c-0.3,0.2-0.6,0.1-0.8-0.1
				c-0.4-0.4-0.7-0.6-1.2-0.6c-0.7,0-1.5,0.7-2.2,2.3v5.9c0,1.9,0.2,2.1,2.3,2.3v0.8h-6.5v-0.8c1.7-0.2,1.9-0.3,1.9-2.2V110
				c0-1.8-0.1-2-1.7-2.2v-0.7c1.5-0.3,2.6-0.6,4-1.2L329.6,109L329.6,109z"/>
			<path class="st0" d="M343.2,109.8c-0.6-1.8-1.5-2.9-2.9-2.9c-1,0-1.9,0.8-1.9,2.1c0,1.4,1.1,2.1,2.4,2.7c2.2,1,3.6,2.1,3.6,4.1
				c0,2.7-2.5,4.1-4.7,4.1c-1.5,0-2.8-0.6-3.4-1.1c-0.2-0.5-0.5-2.5-0.5-3.5l0.8-0.1c0.5,1.8,1.8,3.7,3.5,3.7c1.1,0,2-0.8,2-2.1
				c0-1.3-0.8-2.1-2.3-2.9c-1.7-0.9-3.5-1.9-3.5-4c0-2.2,1.8-3.9,4.4-3.9c1.1,0,1.9,0.2,2.5,0.5c0.3,0.7,0.5,2.4,0.6,3.1
				L343.2,109.8z"/>
			<path class="st0" d="M346.4,119.5v-0.8c1.8-0.2,1.9-0.3,1.9-2.3v-6.5c0-1.8-0.1-1.8-1.8-2.1v-0.7c1.4-0.3,2.8-0.7,4-1.2v10.5
				c0,1.9,0.2,2.1,2,2.3v0.8H346.4z M349.4,100c0.8,0,1.5,0.7,1.5,1.5c0,0.8-0.6,1.5-1.5,1.5c-0.8,0-1.4-0.7-1.4-1.5
				C347.9,100.6,348.6,100,349.4,100L349.4,100z"/>
			<path class="st0" d="M359.4,119.6c-0.4,0.2-0.8,0.3-1.1,0.3c-1.7,0-2.7-1.2-2.7-3.6v-8.8h-1.9l-0.1-0.3l0.8-0.9h1.2v-2.2l1.8-1.9
				l0.4,0v4h3.2c0.2,0.3,0.2,0.9-0.2,1.2h-3v7.9c0,2.4,0.9,2.8,1.6,2.8c0.7,0,1.2-0.2,1.6-0.4l0.3,0.8L359.4,119.6z"/>
			<path class="st0" d="M374.9,107.1c-1.4,0.2-1.7,0.5-2.3,2.1c-0.8,1.7-1.6,4.2-3.4,8.9c-1.8,4.9-2.4,6.7-2.8,8.1
				c-0.2,0.7-0.5,0.8-1,0.8c-0.8,0-1.6-0.7-1.6-1.4c0-0.4,0.3-0.7,0.8-1.1c0.8-0.6,1.4-1.3,2-2.5c0.4-0.9,0.7-1.4,0.8-2
				c0.1-0.4,0.1-0.8-0.1-1.3c-1.1-3.5-2.4-7.1-3.2-9.3c-0.6-1.8-0.8-2.1-2.4-2.3v-0.8h5.7v0.8c-1.4,0.2-1.5,0.5-1.1,1.7l2.5,7.5
				c0.8-2.3,1.9-5.5,2.5-7.5c0.3-1.2,0.2-1.5-1.5-1.7v-0.8h5V107.1z"/>
		</g>
	</g>
	<g>
		<g>
			<g>
				<g>
					<path class="st0" d="M184.1,50.2c-5.4,0-9.2-2.6-9.2-9.7V30c0-7.2,3.8-9.7,9.2-9.7c5.4,0,9.2,2.6,9.2,9.7v0.1h-5.6v-0.8
						c0-3.2-1.4-4.1-3.6-4.1c-2.2,0-3.6,0.9-3.6,4.1v11.8c0,3.2,1.4,4.1,3.6,4.1c2.2,0,3.6-0.9,3.6-4.1v-1.9h5.6v1.2
						C193.2,47.6,189.5,50.2,184.1,50.2z"/>
					<path class="st0" d="M197.8,49.8V20.7H213v4.9h-9.7v6.7h7.4v4.9h-7.4v7.6h10.1v4.9H197.8z"/>
					<path class="st0" d="M231.8,49.8L223.3,31h-0.1v18.7h-5.1V20.7h6.1l7.7,17.2h0.1V20.7h5.1v29.1H231.8z"/>
					<path class="st0" d="M252.8,25.6v24.1h-5.6V25.6h-6.5v-4.9h18.5v4.9H252.8z"/>
					<path class="st0" d="M275.6,49.8l-4.8-11.8h-2.7v11.8h-5.6V20.7h8c6.7,0,9.9,3.2,9.9,8.7c0,3.6-1.3,6.2-4.4,7.4l5.5,13H275.6z
						 M271,25.3h-2.9v8h2.9c2.5,0,3.9-1.2,3.9-4C274.9,26.5,273.4,25.3,271,25.3z"/>
					<path class="st0" d="M285,49.8V20.7h15.2v4.9h-9.7v6.7h7.4v4.9h-7.4v7.6h10.1v4.9H285z"/>
					<path class="st0" d="M321.8,25.6v6.7h7v4.9h-7v12.6h-5.6V20.7h14.5v4.9H321.8z"/>
					<path class="st0" d="M342.8,50.2c-5.4,0-9.2-2.6-9.2-9.7V30c0-7.2,3.8-9.7,9.2-9.7c5.4,0,9.2,2.6,9.2,9.7v10.4
						C352,47.6,348.2,50.2,342.8,50.2z M346.4,29.3c0-3.2-1.4-4.1-3.6-4.1c-2.2,0-3.6,0.9-3.6,4.1v11.8c0,3.2,1.4,4.1,3.6,4.1
						c2.2,0,3.6-0.9,3.6-4.1V29.3z"/>
					<path class="st0" d="M369.5,49.8l-4.8-11.8h-2.7v11.8h-5.6V20.7h8c6.7,0,9.9,3.2,9.9,8.7c0,3.6-1.3,6.2-4.4,7.4l5.5,13H369.5z
						 M364.9,25.3h-2.9v8h2.9c2.5,0,3.9-1.2,3.9-4C368.9,26.5,367.4,25.3,364.9,25.3z"/>
				</g>
				<g>
					<path class="st0" d="M175.7,86.5V57.4h5.6v29.1H175.7z"/>
					<path class="st0" d="M200.5,86.5L192,67.7H192v18.8h-5.1V57.4h6.1l7.7,17.2h0.1V57.4h5.1v29.1H200.5z"/>
					<path class="st0" d="M225.1,86.5l-8.5-18.8h-0.1v18.8h-5.1V57.4h6.1l7.7,17.2h0.1V57.4h5.1v29.1H225.1z"/>
					<path class="st0" d="M244.4,86.9c-5.4,0-9.2-2.6-9.2-9.7V66.8c0-7.2,3.8-9.7,9.2-9.7c5.4,0,9.2,2.6,9.2,9.7v10.4
						C253.6,84.3,249.8,86.9,244.4,86.9z M248.1,66.1c0-3.2-1.4-4.1-3.6-4.1c-2.2,0-3.6,0.9-3.6,4.1v11.8c0,3.2,1.4,4.1,3.6,4.1
						c2.2,0,3.6-0.9,3.6-4.1V66.1z"/>
					<path class="st0" d="M270,86.5h-6.3l-7.4-29.1h5.5l5.1,20.8h0.1l5.1-20.8h5.4L270,86.5z"/>
					<path class="st0" d="M294.5,86.5l-1.4-6.1h-7.7l-1.6,6.1h-5.4l7.2-29.1h7.1l7,29.1H294.5z M289.3,63.7L289.3,63.7l-2.8,11.7
						h5.5L289.3,63.7z"/>
					<path class="st0" d="M313.2,62.4v24.1h-5.6V62.4h-6.5v-4.9h18.5v4.9H313.2z"/>
					<path class="st0" d="M323.3,86.5V57.4h5.6v29.1H323.3z"/>
					<path class="st0" d="M342.9,86.9c-5.4,0-9.2-2.6-9.2-9.7V66.8c0-7.2,3.8-9.7,9.2-9.7c5.4,0,9.2,2.6,9.2,9.7v10.4
						C352,84.3,348.2,86.9,342.9,86.9z M346.5,66.1c0-3.2-1.4-4.1-3.6-4.1c-2.2,0-3.6,0.9-3.6,4.1v11.8c0,3.2,1.4,4.1,3.6,4.1
						c2.2,0,3.6-0.9,3.6-4.1V66.1z"/>
					<path class="st0" d="M370.5,86.5L362,67.7h-0.1v18.8h-5.1V57.4h6.1l7.7,17.2h0.1V57.4h5.1v29.1H370.5z"/>
				</g>
			</g>
			<g>
				<path class="st0" d="M189.3,115c-0.1,0.8-0.7,3.7-0.9,4.5h-12.5v-0.8c2.3-0.2,2.5-0.4,2.5-2.7v-12.4c0-2.4-0.2-2.5-2.3-2.7v-0.8
					h7.2v0.8c-2.2,0.2-2.4,0.4-2.4,2.7v12.2c0,1.5,0.1,2.1,0.6,2.4c0.5,0.3,1.4,0.4,2.5,0.4c1.6,0,2.5-0.2,3.1-0.9
					c0.5-0.6,1-1.5,1.4-2.8L189.3,115z"/>
				<path class="st0" d="M200.9,117.1c-1.6,2.2-3.5,2.8-4.5,2.8c-3.5,0-5.5-3-5.5-6.4c0-2.4,0.9-4.4,2.2-5.7
					c1.1-1.1,2.5-1.8,3.8-1.8h0c2.4,0,4.2,2.2,4.2,4.4c0,0.7-0.2,0.9-0.7,1.1c-0.4,0.1-3.8,0.4-7.3,0.5c0,4.3,2.2,6,4.3,6
					c1.1,0,2-0.4,3.1-1.4L200.9,117.1z M196.2,107c-1.4,0-2.6,1.6-2.9,3.7c1.6,0,3.1,0,4.7-0.1c0.5,0,0.7-0.2,0.7-0.7
					C198.7,108.4,197.8,107,196.2,107L196.2,107z"/>
				<path class="st0" d="M202.7,119.5v-0.8c1.8-0.2,1.9-0.3,1.9-2.3v-6.5c0-1.8-0.1-1.8-1.8-2.1v-0.7c1.4-0.3,2.8-0.7,4-1.2v10.5
					c0,1.9,0.2,2.1,2,2.3v0.8H202.7z M205.6,100c0.8,0,1.5,0.7,1.5,1.5c0,0.8-0.6,1.5-1.5,1.5c-0.8,0-1.4-0.7-1.4-1.5
					C204.2,100.6,204.8,100,205.6,100L205.6,100z"/>
				<path class="st0" d="M223.6,118.8c-0.7,0.1-2.8,0.5-4.3,1.1v-1.8l-2,1.2c-0.9,0.5-1.4,0.7-1.8,0.7c-2.1,0-5.1-2.2-5.1-6.5
					c0-4.1,3.3-7.5,7.2-7.5c0.3,0,1.2,0.1,1.7,0.3v-4.1c0-1.8-0.1-1.9-2.1-2.1v-0.8c1.4-0.2,3.3-0.6,4.4-1v17.9c0,1.4,0.2,1.6,1,1.7
					l1,0.1V118.8z M219.3,108.5c-0.6-1-1.7-1.4-2.6-1.4c-1.4,0-3.7,1.2-3.7,5.6c0,3.5,1.9,5.4,3.8,5.4c0.9,0,1.9-0.4,2.6-1V108.5z"
					/>
				<path class="st0" d="M235.1,117.1c-1.6,2.2-3.5,2.8-4.5,2.8c-3.5,0-5.5-3-5.5-6.4c0-2.4,0.9-4.4,2.2-5.7
					c1.1-1.1,2.5-1.8,3.8-1.8h0c2.4,0,4.2,2.2,4.2,4.4c0,0.7-0.2,0.9-0.7,1.1c-0.4,0.1-3.8,0.4-7.3,0.5c0,4.3,2.2,6,4.3,6
					c1.1,0,2-0.4,3.1-1.4L235.1,117.1z M230.4,107c-1.4,0-2.6,1.6-2.9,3.7c1.6,0,3.1,0,4.7-0.1c0.5,0,0.7-0.2,0.7-0.7
					C232.8,108.4,232,107,230.4,107L230.4,107z"/>
				<path class="st0" d="M244.7,119.5v-0.8c1.7-0.2,1.8-0.3,1.8-2.3V111c0-2.1-0.6-3.3-2.5-3.3c-1.1,0-2.2,0.7-3,1.4v7.4
					c0,1.9,0.2,2.1,1.7,2.2v0.8h-6v-0.8c1.9-0.2,2-0.3,2-2.2v-6.6c0-1.8-0.1-1.9-1.7-2.2v-0.7c1.4-0.3,2.7-0.6,4-1.2v2.2
					c0.6-0.4,1.2-0.8,1.8-1.3c0.8-0.5,1.5-0.9,2.3-0.9c2.3,0,3.5,1.7,3.5,4.3v6.2c0,1.9,0.2,2,1.7,2.2v0.8H244.7z"/>
				<path class="st0" d="M276.2,100.9c-1.7,0.2-2.2,0.5-2.3,1.7c-0.1,0.9-0.2,2.2-0.2,4.8v3.2c0,3.4-0.5,5.8-2,7.5
					c-1.2,1.4-3,1.9-4.7,1.9c-1.5,0-3.1-0.3-4.3-1.4c-1.5-1.3-2.2-3.4-2.2-6.7v-8.2c0-2.5-0.2-2.6-2.3-2.8v-0.8h7.1v0.8
					c-2.1,0.2-2.3,0.3-2.3,2.8v7.2c0,4.4,1.2,7.4,4.7,7.4c3.8,0,4.8-3.6,4.8-8.5v-2.5c0-2.6-0.1-3.9-0.2-4.8
					c-0.2-1.2-0.6-1.5-2.7-1.6v-0.8h6.5V100.9z"/>
				<path class="st0" d="M285.5,119.5v-0.8c1.7-0.2,1.8-0.3,1.8-2.3V111c0-2.1-0.6-3.3-2.5-3.3c-1.1,0-2.2,0.7-3,1.4v7.4
					c0,1.9,0.2,2.1,1.7,2.2v0.8h-6v-0.8c1.9-0.2,2-0.3,2-2.2v-6.6c0-1.8-0.1-1.9-1.7-2.2v-0.7c1.4-0.3,2.7-0.6,4-1.2v2.2
					c0.6-0.4,1.2-0.8,1.8-1.3c0.8-0.5,1.5-0.9,2.3-0.9c2.3,0,3.5,1.7,3.5,4.3v6.2c0,1.9,0.2,2,1.7,2.2v0.8H285.5z"/>
				<path class="st0" d="M292.9,119.5v-0.8c1.8-0.2,1.9-0.3,1.9-2.3v-6.5c0-1.8-0.1-1.8-1.8-2.1v-0.7c1.4-0.3,2.8-0.7,4-1.2v10.5
					c0,1.9,0.2,2.1,2,2.3v0.8H292.9z M295.8,100c0.8,0,1.5,0.7,1.5,1.5c0,0.8-0.6,1.5-1.5,1.5c-0.8,0-1.4-0.7-1.4-1.5
					C294.4,100.6,295,100,295.8,100L295.8,100z"/>
				<path class="st0" d="M312.7,107.1c-1.4,0.2-1.7,0.5-2.4,2.1c-1,2.5-2.4,6.1-3.9,10.6h-0.8c-1.2-3.7-2.5-7.1-3.8-10.6
					c-0.6-1.7-0.8-1.9-2.3-2.1v-0.8h5.7v0.8c-1.5,0.2-1.5,0.4-1.1,1.5c0.8,2.4,1.8,5.4,2.6,7.6c0.9-2.6,1.8-5.1,2.4-7.2
					c0.5-1.5,0.3-1.8-1.3-2v-0.8h4.9V107.1z"/>
				<path class="st0" d="M323.5,117.1c-1.6,2.2-3.5,2.8-4.5,2.8c-3.5,0-5.5-3-5.5-6.4c0-2.4,0.9-4.4,2.2-5.7
					c1.1-1.1,2.5-1.8,3.8-1.8h0c2.4,0,4.2,2.2,4.2,4.4c0,0.7-0.2,0.9-0.7,1.1c-0.4,0.1-3.8,0.4-7.3,0.5c0,4.3,2.2,6,4.3,6
					c1.1,0,2-0.4,3.1-1.4L323.5,117.1z M318.8,107c-1.4,0-2.6,1.6-2.9,3.7c1.6,0,3.1,0,4.7-0.1c0.5,0,0.7-0.2,0.7-0.7
					C321.3,108.4,320.4,107,318.8,107L318.8,107z"/>
				<path class="st0" d="M329.6,109c0.8-1.3,2-3,3.4-3c0.9,0,1.6,0.8,1.6,1.5c0,0.6-0.4,1.2-0.9,1.5c-0.3,0.2-0.6,0.1-0.8-0.1
					c-0.4-0.4-0.7-0.6-1.2-0.6c-0.7,0-1.5,0.7-2.2,2.3v5.9c0,1.9,0.2,2.1,2.3,2.3v0.8h-6.5v-0.8c1.7-0.2,1.9-0.3,1.9-2.2V110
					c0-1.8-0.1-2-1.7-2.2v-0.7c1.5-0.3,2.6-0.6,4-1.2L329.6,109L329.6,109z"/>
				<path class="st0" d="M343.2,109.8c-0.6-1.8-1.5-2.9-2.9-2.9c-1,0-1.9,0.8-1.9,2.1c0,1.4,1.1,2.1,2.4,2.7c2.2,1,3.6,2.1,3.6,4.1
					c0,2.7-2.5,4.1-4.7,4.1c-1.5,0-2.8-0.6-3.4-1.1c-0.2-0.5-0.5-2.5-0.5-3.5l0.8-0.1c0.5,1.8,1.8,3.7,3.5,3.7c1.1,0,2-0.8,2-2.1
					c0-1.3-0.8-2.1-2.3-2.9c-1.7-0.9-3.5-1.9-3.5-4c0-2.2,1.8-3.9,4.4-3.9c1.1,0,1.9,0.2,2.5,0.5c0.3,0.7,0.5,2.4,0.6,3.1
					L343.2,109.8z"/>
				<path class="st0" d="M346.4,119.5v-0.8c1.8-0.2,1.9-0.3,1.9-2.3v-6.5c0-1.8-0.1-1.8-1.8-2.1v-0.7c1.4-0.3,2.8-0.7,4-1.2v10.5
					c0,1.9,0.2,2.1,2,2.3v0.8H346.4z M349.4,100c0.8,0,1.5,0.7,1.5,1.5c0,0.8-0.6,1.5-1.5,1.5c-0.8,0-1.4-0.7-1.4-1.5
					C347.9,100.6,348.6,100,349.4,100L349.4,100z"/>
				<path class="st0" d="M359.4,119.6c-0.4,0.2-0.8,0.3-1.1,0.3c-1.7,0-2.7-1.2-2.7-3.6v-8.8h-1.9l-0.1-0.3l0.8-0.9h1.2v-2.2
					l1.8-1.9l0.4,0v4h3.2c0.2,0.3,0.2,0.9-0.2,1.2h-3v7.9c0,2.4,0.9,2.8,1.6,2.8c0.7,0,1.2-0.2,1.6-0.4l0.3,0.8L359.4,119.6z"/>
				<path class="st0" d="M374.9,107.1c-1.4,0.2-1.7,0.5-2.3,2.1c-0.8,1.7-1.6,4.2-3.4,8.9c-1.8,4.9-2.4,6.7-2.8,8.1
					c-0.2,0.7-0.5,0.8-1,0.8c-0.8,0-1.6-0.7-1.6-1.4c0-0.4,0.3-0.7,0.8-1.1c0.8-0.6,1.4-1.3,2-2.5c0.4-0.9,0.7-1.4,0.8-2
					c0.1-0.4,0.1-0.8-0.1-1.3c-1.1-3.5-2.4-7.1-3.2-9.3c-0.6-1.8-0.8-2.1-2.4-2.3v-0.8h5.7v0.8c-1.4,0.2-1.5,0.5-1.1,1.7l2.5,7.5
					c0.8-2.3,1.9-5.5,2.5-7.5c0.3-1.2,0.2-1.5-1.5-1.7v-0.8h5V107.1z"/>
			</g>
		</g>
		<g>
			<path class="st1" d="M56.4,38.6c-7.2,13.6-18.1,22.8-28.4,31c4.1,27.3,23.3,29.2,51.2,21.1c1.1-3.3,2.4-6.2,4.4-8.2
				c15.5-15.4,31.2-1.3,41.2-23.3c6.1-13.5,2-31.9-17.5-43.3c-0.6-0.3-1.1-0.7-1.7-1C87.4,10.7,67.9,16.7,56.4,38.6z"/>
			<path class="st2" d="M124.7,59.1c-10,22-25.7,8-41.2,23.3c-2,2-3.3,4.9-4.4,8.2c0.9-0.3,1.8-0.5,2.8-0.8
				c14-4.4,24.1,12.7,39.6,6.1c24.9-10.6,18.5-48-0.9-69.1c-4.4-4.7-9.3-8.7-14.6-11.8c-0.2-0.1-0.4-0.1-0.6-0.1
				c0.6,0.3,1.1,0.6,1.7,1C126.7,27.2,130.9,45.6,124.7,59.1z"/>
			<path class="st3" d="M106.1,15.1c5.2,3.1,10.2,7.1,14.6,11.8c19.4,21.1,25.8,58.5,0.9,69.1C106.1,102.6,96,85.4,82,89.8
				c-0.9,0.3-1.9,0.6-2.8,0.8c-3.9,11.9-5.1,29.4-28,29.6c-27.9,0-35.3-17.6-41.1-35.7C2,92.7-2.7,101.8,0.4,115.3
				C12,166.1,103,151.8,139.3,92.2C161.1,56.7,135.8,22.3,106.1,15.1z"/>
			<path class="st4" d="M62.2,11c-3.9,1.7-7.8,3.9-11.5,6.7C41.1,24.6,35,35.4,30.5,45.6c-2.2,5.5-2.6,12.7-3.1,18.7
				c0.1,1.8,0.3,3.6,0.6,5.2c10.3-8.1,21.2-17.4,28.4-31c11.5-21.9,31.1-27.9,49.2-23.7c-2-1.2-4.1-2.2-6.1-3.2
				C87.4,6.5,74.2,5.9,62.2,11z"/>
			<path class="st5" d="M27.4,64.4c0.5-6,0.8-13.2,3.1-18.7c4.5-10.2,10.6-21,20.3-27.9c3.7-2.8,7.6-5.1,11.5-6.7
				c12-5.1,25.1-4.5,37.2,0.7C35.6-20.3-9.7,21.9,9.3,82c0.3,0.8,0.5,1.7,0.8,2.5c5-5.1,11.3-9.8,17.9-14.9
				C27.7,67.9,27.5,66.2,27.4,64.4z"/>
			<path class="st6" d="M51.2,120.2c22.9-0.2,24.2-17.7,28-29.6C51.3,98.8,32.1,96.9,28,69.6c-6.5,5.2-12.8,9.9-17.9,14.9
				C15.9,102.6,23.3,120.3,51.2,120.2z"/>
		</g>
	</g>
</g>
</svg>
